<?xml version="1.0" encoding="iso-8859-1"?>
<!-- Uploaded to: SVG Repo, www.svgrepo.com, Generator: SVG Repo Mixer Tools -->
<svg height="800px" width="800px" version="1.1" id="Layer_1" xmlns="http://www.w3.org/2000/svg" xmlns:xlink="http://www.w3.org/1999/xlink" 
	 viewBox="0 0 512 512" xml:space="preserve">
<g>
	<path style="fill:#ECF0F1;" d="M379.927,512H149.73c-14.433,0-26.147-11.705-26.147-26.138V26.138
		C123.582,11.705,135.296,0,149.73,0h230.197c14.433,0,26.138,11.705,26.138,26.138v459.723C406.065,500.295,394.36,512,379.927,512
		"/>
	<polygon style="fill:#38454F;" points="123.587,441.379 406.069,441.379 406.069,52.966 123.587,52.966 	"/>
	<path style="fill:#C03A2B;" d="M313.487,167.724c-23.49,0-41.251,16.87-48.684,35.31c-7.424-18.441-25.185-35.31-48.684-35.31
		c-48.675,0-64.574,61.475-29.405,97.889c13.1,13.559,74.487,75.573,78.186,78.663c4.281-4.255,65.315-64.927,77.992-78.663
		C378.166,227.416,362.171,167.724,313.487,167.724"/>
	<g>
		<path style="fill:#546A79;" d="M300.137,35.31H256c-4.882,0-8.828-3.946-8.828-8.828s3.946-8.828,8.828-8.828h44.138
			c4.882,0,8.828,3.946,8.828,8.828S305.019,35.31,300.137,35.31"/>
		<path style="fill:#546A79;" d="M229.517,35.31h-8.828c-4.882,0-8.828-3.946-8.828-8.828s3.946-8.828,8.828-8.828h8.828
			c4.882,0,8.828,3.946,8.828,8.828S234.398,35.31,229.517,35.31"/>
	</g>
	<g>
		<path style="fill:#BDC3C7;" d="M114.758,97.103c-4.882,0-8.828-3.946-8.828-8.828v-8.828c0-4.882,3.946-8.828,8.828-8.828
			s8.828,3.946,8.828,8.828v8.828C123.586,93.158,119.64,97.103,114.758,97.103"/>
		<path style="fill:#BDC3C7;" d="M114.758,132.414c-4.882,0-8.828-3.946-8.828-8.828v-8.828c0-4.882,3.946-8.828,8.828-8.828
			s8.828,3.946,8.828,8.828v8.828C123.586,128.468,119.64,132.414,114.758,132.414"/>
		<path style="fill:#BDC3C7;" d="M114.758,167.724c-4.882,0-8.828-3.946-8.828-8.828v-8.828c0-4.882,3.946-8.828,8.828-8.828
			s8.828,3.946,8.828,8.828v8.828C123.586,163.778,119.64,167.724,114.758,167.724"/>
		<path style="fill:#BDC3C7;" d="M291.31,476.69c0,14.627-11.855,26.483-26.483,26.483s-26.483-11.855-26.483-26.483
			c0-14.627,11.855-26.483,26.483-26.483S291.31,462.062,291.31,476.69"/>
	</g>
</g>
</svg>